<svg viewBox="0 0 1200 400" xmlns="http://www.w3.org/2000/svg" width="1200" height="400">

  <rect width="1200" height="400" fill="#04342C"/>

  <rect x="0" y="0" width="1200" height="400" fill="#04342C"/>

  <line x1="780" y1="0" x2="1200" y2="400" stroke="#0F6E56" stroke-width="0.8"/>
  <line x1="870" y1="0" x2="1200" y2="282" stroke="#0F6E56" stroke-width="0.5"/>
  <line x1="960" y1="0" x2="1200" y2="162" stroke="#0F6E56" stroke-width="0.5"/>
  <line x1="680" y1="0" x2="1200" y2="520" stroke="#085041" stroke-width="0.8"/>

  <rect x="940" y="60" width="160" height="210" rx="10" fill="#085041" opacity="0.7" transform="rotate(-8 1020 165)"/>
  <rect x="980" y="75" width="160" height="210" rx="10" fill="#0F6E56" opacity="0.6" transform="rotate(-2 1060 180)"/>
  <rect x="1015" y="88" width="160" height="210" rx="10" fill="#1D9E75" opacity="0.3" transform="rotate(5 1095 193)"/>

  <line x1="1035" y1="128" x2="1135" y2="128" stroke="#9FE1CB" stroke-width="1.5" opacity="0.6"/>
  <line x1="1035" y1="148" x2="1110" y2="148" stroke="#9FE1CB" stroke-width="1" opacity="0.4"/>
  <line x1="1035" y1="166" x2="1120" y2="166" stroke="#9FE1CB" stroke-width="1" opacity="0.4"/>
  <line x1="1035" y1="184" x2="1095" y2="184" stroke="#9FE1CB" stroke-width="1" opacity="0.3"/>
  <line x1="1035" y1="202" x2="1115" y2="202" stroke="#9FE1CB" stroke-width="1" opacity="0.3"/>
  <line x1="1035" y1="220" x2="1100" y2="220" stroke="#9FE1CB" stroke-width="1" opacity="0.3"/>
  <line x1="1035" y1="238" x2="1125" y2="238" stroke="#9FE1CB" stroke-width="1" opacity="0.3"/>

  <rect x="0" y="0" width="6" height="400" fill="#1D9E75"/>

  <text x="65" y="50" font-family="'Courier New', Courier, monospace" font-size="13" fill="#5DCAA5" letter-spacing="0.15em">// README.md</text>

  <text x="65" y="135" font-family="Georgia, 'Times New Roman', serif" font-size="72" font-weight="700" fill="#E1F5EE">Vidhya</text>
  <text x="65" y="215" font-family="Georgia, 'Times New Roman', serif" font-size="72" font-weight="700" fill="#9FE1CB">Dharmadurai</text>

  <text x="65" y="257" font-family="'Courier New', Courier, monospace" font-size="19" fill="#9FE1CB" letter-spacing="0.04em">Senior Technical Writer · 11 years</text>

  <text x="65" y="292" font-family="'Courier New', Courier, monospace" font-size="15" fill="#5DCAA5" letter-spacing="0.02em">Aerospace  →  SaaS  →  Developer Docs</text>

  <rect x="65" y="320" width="96" height="26" rx="13" fill="#085041"/>
  <text x="113" y="337" font-family="'Courier New', Courier, monospace" font-size="11.5" fill="#9FE1CB" text-anchor="middle" letter-spacing="0.03em">API Docs</text>

  <rect x="171" y="320" width="120" height="26" rx="13" fill="#085041"/>
  <text x="231" y="337" font-family="'Courier New', Courier, monospace" font-size="11.5" fill="#9FE1CB" text-anchor="middle" letter-spacing="0.03em">Docs-as-Code</text>

  <rect x="301" y="320" width="128" height="26" rx="13" fill="#085041"/>
  <text x="365" y="337" font-family="'Courier New', Courier, monospace" font-size="11.5" fill="#9FE1CB" text-anchor="middle" letter-spacing="0.03em">MadCap Flare</text>

  <rect x="439" y="320" width="100" height="26" rx="13" fill="#085041"/>
  <text x="489" y="337" font-family="'Courier New', Courier, monospace" font-size="11.5" fill="#9FE1CB" text-anchor="middle" letter-spacing="0.03em">OpenAPI</text>

  <rect x="549" y="320" width="80" height="26" rx="13" fill="#085041"/>
  <text x="589" y="337" font-family="'Courier New', Courier, monospace" font-size="11.5" fill="#9FE1CB" text-anchor="middle" letter-spacing="0.03em">Boeing</text>

  <line x1="65" y1="375" x2="700" y2="375" stroke="#0F6E56" stroke-width="0.5"/>
  <text x="65" y="393" font-family="Georgia, 'Times New Roman', serif" font-style="italic" font-size="13" fill="#5DCAA5">Aerospace-level discipline. Developer-centric execution.</text>

</svg>
